# xmcd CD database file
#
# Track frame offsets:
#	150
#	33463
#	50506
#	67074
#	109854
#	127689
#	147327
#	166007
#	177573
#	209589
#	224730
#	233363
#	248471
#	278321
#	301392
#	310139
#	329437
#	353007
#
# Disc length: 4914 seconds
#
# Revision: 0
# Processed by: cddbd v1.5.1PL2 Copyright (c) Steve Scherf et al.
# Submitted via: Feurio! 1.68 - http://www.feurio.com
#
DISCID=04133012
DTITLE=Ten Years After - Essential Collection
DYEAR=1900
DGENRE=Bluesrock
TTITLE0=The Bluest Blues
TTITLE1=Rock 'n' Roll Music To The World
TTITLE2=I'd Love To Change The World
TTITLE3=I'm Going Home
TTITLE4=Cho Cho Mama
TTITLE5=Tomorrow I'll Be Out Of Town
TTITLE6=Me And My Baby
TTITLE7=Goin' Back To Birmingham
TTITLE8=50000 Miles Beneath My Brain
TTITLE9=Bad Scene
TTITLE10=Two Time Mama
TTITLE11=Stoned Woman
TTITLE12=Good Morning Little Schoolgirl
TTITLE13=If You Should Love Me
TTITLE14=I Don't Know That You Don't Know My Name
TTITLE15=The Stoop
TTITLE16=I Woke Up This Morning
TTITLE17=Summertime
EXTD=
EXTT0=
EXTT1=
EXTT2=
EXTT3=
EXTT4=
EXTT5=
EXTT6=
EXTT7=
EXTT8=
EXTT9=
EXTT10=
EXTT11=
EXTT12=
EXTT13=
EXTT14=
EXTT15=
EXTT16=
EXTT17=
PLAYORDER=
